<?xml version="1.0" encoding="utf-8"?>
<!-- Generator: Adobe Illustrator 21.1.0, SVG Export Plug-In . SVG Version: 6.00 Build 0)  -->
<svg version="1.1" id="Layer_1" xmlns="http://www.w3.org/2000/svg" xmlns:xlink="http://www.w3.org/1999/xlink" x="0px" y="0px"
	 viewBox="0 0 161 161" style="enable-background:new 0 0 161 161;" xml:space="preserve">
<style type="text/css">
	.st0{fill:#B48940;}
</style>
<path class="st0" d="M81.1,0.1c28.5,0,51.4,13.3,69,40c7.3,13.8,10.9,27.2,10.9,40.4c0,22.3-9,42.3-27.1,59.9
	c-16.1,13.3-33.1,20-50.9,20h-4.8c-23.6,0-44.3-10.6-61.8-31.9C5.6,114.1,0.2,97.7,0.2,79.6c0-26.7,12.4-49.1,37.1-67.1
	C50.9,4.2,65.5,0.1,81.1,0.1z M38.2,52v56.6h28.6c10.8,0,16.9-5.1,18.5-15.2v-1c0-6.6-3-11.5-9-14.7c4.1-3.2,6.2-6.2,6.2-9v-5.7
	c0-4.3-3.3-7.7-10-10c-3.4-0.6-5.6-0.9-6.7-0.9H38.2z M51.6,61.5h9.5c6.3,0,9.5,1.9,9.5,5.7v2.4c0,2.9-2,4.7-6.1,5.2H51.6
	c-0.6,0-0.9-0.3-0.9-0.9V62.4C50.8,61.8,51.1,61.5,51.6,61.5z M51.6,83.4h10.9c7,0,10.5,2.2,10.5,6.7v3.8c-1.7,3.5-4.3,5.2-8.1,5.2
	H51.6c-0.6,0-0.9-0.3-0.9-0.9V84.3C50.8,83.7,51.1,83.4,51.6,83.4z M86.8,87.2c0,9.1,4.1,15.8,12.3,19.9c3.4,1,5.9,1.5,7.6,1.5h3.3
	c5.9,0,10.8-2.9,14.7-8.6l2.4-4.7h-10.5c-0.1,1.7-2.3,3.4-6.7,5.2h-1.4c-5.9,0-9.4-3-10.5-9v-0.9l0.9-0.5h28.1l0.9-0.5l-0.5-0.9
	v-0.5c0-11-4.3-18.2-12.9-21.4l-3.3-0.9h-7.1c-3.1,0-7,2.1-11.9,6.2C88.7,77.2,86.8,82.3,86.8,87.2z M96.8,54.8v6.7h21.4
	c0.7,0,1-0.3,1-0.9v-5.7H96.8z M106.8,73.8h0.9c5.7,0.9,8.6,3.8,8.6,8.6v0.5H98.7V81C98.7,77.5,101.4,75.1,106.8,73.8z"/>
</svg>
