<?xml version="1.0" encoding="utf-8"?>
<!-- Generator: Adobe Illustrator 21.1.0, SVG Export Plug-In . SVG Version: 6.00 Build 0)  -->
<svg version="1.1" id="Layer_1" xmlns="http://www.w3.org/2000/svg" xmlns:xlink="http://www.w3.org/1999/xlink" x="0px" y="0px"
	 viewBox="0 0 161 161" style="enable-background:new 0 0 161 161;" xml:space="preserve">
<style type="text/css">
	.st0{fill:#B48940;}
</style>
<circle class="st0" cx="81" cy="80" r="80"/>
<g>
	<path d="M60.4,116.6c-5-3.8-7.5-8.3-7.5-13.6h5.3c0,4,1.9,7.4,5.8,10.3c4,2.8,8.7,4.2,14.3,4.2c6.1,0,11-1.6,14.6-4.9
		c3.7-3.2,5.5-7.6,5.5-13V87.5c-1.8,3.9-4.4,6.9-8,9.2c-3.7,2.3-7.7,3.5-11.9,3.5c-7.8,0-14-2.7-18.6-8.2C55.2,86.3,52.8,79,52.8,70
		c0-9.1,2.4-16.4,7.1-21.9c4.6-5.5,10.8-8.2,18.6-8.2c4.5,0,8.6,1.2,12.3,3.6c3.6,2.4,6.1,5.6,7.6,9.6V41.9h5.5v57.7
		c0,7.1-2.3,12.6-6.8,16.5c-4.4,4-10.7,6-18.9,6C71.3,122.1,65.3,120.3,60.4,116.6z M92.6,88.3c3.9-5.1,5.8-11.2,5.8-18.3
		c0-7.1-1.9-13.2-5.8-18.3c-3.9-5-8.6-7.5-14.2-7.5c-6.1,0-11,2.4-14.6,7.1c-3.7,4.7-5.5,11-5.5,18.7s1.8,14,5.5,18.7
		c3.6,4.7,8.5,7.1,14.6,7.1C84,95.8,88.7,93.3,92.6,88.3z"/>
</g>
</svg>
