<?xml version="1.0" encoding="utf-8"?>
<!-- Generator: Adobe Illustrator 21.1.0, SVG Export Plug-In . SVG Version: 6.00 Build 0)  -->
<svg version="1.1" id="Layer_1" xmlns="http://www.w3.org/2000/svg" xmlns:xlink="http://www.w3.org/1999/xlink" x="0px" y="0px"
	 viewBox="0 0 161 161" style="enable-background:new 0 0 161 161;" xml:space="preserve">
<style type="text/css">
	.st0{fill:#B48940;}
</style>
<path class="st0" d="M81,0.6c25.1,0,46.4,10.8,63.8,32.4C155.6,48.2,161,64,161,80.5c0,25.3-10.8,46.9-32.4,64.8
	C113.8,155.8,98.5,161,82.9,161h-3.8c-25.7,0-47.1-11.3-64.2-33.8C5,112.4,0.1,97.7,0.1,82.9v-4.3c0-20.7,8.7-39.7,26.2-57.2
	C42.3,7.5,60.5,0.6,81,0.6z M88.7,76.2h-0.5l1.9-8.6l-0.9-0.5H71c-1.6,5.3-2.4,8.6-2.4,10h7.6c0.7,0.1,1,0.4,1,0.9
	c-4.1,18.1-7.4,27.1-10,27.1c-0.5,1.6-3.2,3-8.1,4.3c-2-0.7-3.1-1.5-3.3-2.4v-2.3c0-2.2,3-14.6,9.1-37.2l-1-0.5H45.4
	c-1.9,0-3,1.7-3.3,5.2l-1.5,4.8h7.6c0.6,0,0.9,0.5,0.9,1.4c-4.1,17.2-6.1,26.7-6.1,28.5c1.2,5.7,2.8,8.6,4.7,8.6
	c0,0.6,1.7,1.2,5.2,1.9h2.9c3.8,0,8-2.5,12.4-7.6v-0.5h1c0,0.6-0.5,2.6-1.5,6.1v1h11.9c0.5,0,1.9-5.2,4.3-15.7
	c3.2-15.9,7-23.8,11.4-23.8c0-0.4,0.5-0.5,1.5-0.5h2.3c3,0,4.9,2.1,5.8,6.2v1.9c-3.5,12.2-5.3,19.7-5.3,22.4c0,5.1,2.9,8.6,8.6,10.5
	h3.3c7.2,0,11.9-5.1,14.3-15.2h-0.5c-1.2,0-2.5-0.5-3.8-1.4H121c-1.8,5.4-4,8.1-6.7,8.1h-0.5c-1.2-0.5-1.9-1.6-1.9-3.3
	c3.5-12.8,5.2-20.7,5.2-23.8v-2.9c0-6.1-3.3-10.4-10-12.8h-3.8C99.2,66.6,94.3,70,88.7,76.2z M52.4,52v2.4c0,3,2.7,5.1,8.1,6.1
	c4.5-1.6,6.7-3.8,6.7-6.6v-2.4c0-2.4-1.7-4.5-5.2-6.2h-3.3C55.3,45.3,53.2,47.5,52.4,52z"/>
</svg>
