<?xml version="1.0" encoding="utf-8"?>
<!-- Generator: Adobe Illustrator 21.1.0, SVG Export Plug-In . SVG Version: 6.00 Build 0)  -->
<svg version="1.1" id="Layer_1" xmlns="http://www.w3.org/2000/svg" xmlns:xlink="http://www.w3.org/1999/xlink" x="0px" y="0px"
	 viewBox="0 0 161 161" style="enable-background:new 0 0 161 161;" xml:space="preserve">
<style type="text/css">
	.st0{fill:#B48940;}
</style>
<path class="st0" d="M79.4-0.1h3.3c17.9,0,35.2,6.8,51.9,20.5c17.7,18,26.6,36.8,26.6,56.6v7.7c0,11.5-4.4,24.9-13.3,40.4
	c-10.9,15.6-25.8,26.4-44.7,32.4c-8.8,2.2-16,3.3-21.9,3.3h-0.5c-21.8,0-41.3-8.5-58.5-25.6C7.7,118.3,0.4,100.1,0.4,80.3
	c0-21.2,8.3-40.5,24.8-58.1C42.4,7.3,60.4-0.1,79.4-0.1z M84.2,66.5v3.8c0,0.6-0.3,0.9-1,0.9c-10-1.4-18.5-4.8-25.6-10.5l-6.6-6.2
	h-0.5c0,0.5-0.6,1.8-1.9,3.8v5.7c0.4,3.2,2.6,6.9,6.6,10.9v0.5c-2.2,0-4.4-0.6-6.6-1.9v0.5c0,6.1,4,11.3,11.9,15.7l-0.9,0.5h-2.3
	l-2.4-0.5v0.9c3.6,6.7,8.3,10,13.8,10v1.4c-6.3,3.8-12.5,5.7-18.6,5.7h-2.8v0.9c9,4.1,16.7,6.2,23.3,6.2c13.8,0,25.5-5.5,35.2-16.6
	c7-9.7,10.5-18.9,10.5-27.6v-3.3c5.1-4.8,7.6-7.6,7.7-8.1v-0.5c-1.8,0.9-4.4,1.7-7.7,2.4l-0.5-1c3-1.7,5.2-4.1,6.6-7.1v-0.5h-0.5
	c-4.7,2.2-7.5,3.4-8.5,3.4h-1.4c-3.5-2.9-6.7-4.5-9.5-4.8h-3.8c-5.3,0-9.6,3-12.8,9C84.6,61.9,84.2,63.9,84.2,66.5z"/>
</svg>
