<?xml version="1.0" encoding="utf-8"?>
<!-- Generator: Adobe Illustrator 21.1.0, SVG Export Plug-In . SVG Version: 6.00 Build 0)  -->
<svg version="1.1" id="Layer_1" xmlns="http://www.w3.org/2000/svg" xmlns:xlink="http://www.w3.org/1999/xlink" x="0px" y="0px"
	 viewBox="0 0 161 161" style="enable-background:new 0 0 161 161;" xml:space="preserve">
<style type="text/css">
	.st0{fill:#B48940;}
</style>
<g>
	<path class="st0" d="M81.1,0c26.3,0,48.2,11.4,65.7,34.3c9.9,14.9,14.8,30.5,14.8,46.7c0,18.7-6.8,36.4-20.5,52.9
		c-17.3,18.1-37.3,27.2-60,27.2c-25.8,0-47.6-11.1-65.2-33.4c-5.5-7.4-10-17.1-13.4-29.1L0.6,85.3v-8.6c0.6-12,4.1-24.1,10.5-36.2
		C28.8,13.5,52.2,0,81.1,0z M77.7,49.6c-26.7,0-40,2.1-40,6.2c-2,1.3-3.3,9.8-3.8,25.7v0.5c0,18,2.2,28.1,6.7,30.5
		c3.4,1.6,11.4,2.3,23.8,2.3h42.9c10,0,15.8-2.2,17.6-6.7c1.9-4.8,2.8-12.4,2.8-22.9v-6.7c0-14.9-1.9-23.6-5.7-26.2
		C119.2,50.5,104.4,49.6,77.7,49.6z M71.5,69.1H72c15,7.8,22.8,12.1,23.3,12.8L73,94.3h-1.5V69.1z"/>
</g>
</svg>
